<?xml version="1.0" encoding="utf-8"?><svg xmlns="http://www.w3.org/2000/svg" xmlns:xlink="http://www.w3.org/1999/xlink"><symbol viewBox="0 0 8 13" id="arrow" xmlns="http://www.w3.org/2000/svg"><path d="M1.69 11.948L.07 10.385c-.047-.045-.07-.09-.07-.135 0-.045.023-.09.068-.136L4.164 6.02l-.001-.001-.602-.602L.07 1.935c-.045-.046-.068-.091-.068-.136 0-.045.023-.09.069-.136L1.665.069c.046-.045.091-.068.136-.068.045 0 .09.023.136.068l5.611 5.585a.517.517 0 0 1 .137.364.517.517 0 0 1-.137.364l-5.587 5.566c-.045.046-.09.07-.136.07-.045 0-.09-.024-.136-.07z"/></symbol><symbol viewBox="0 0 12 8" id="selector-arrow" xmlns="http://www.w3.org/2000/svg"><path d="M.07 1.845L1.633.225c.09-.092.182-.092.273 0l4.095 4.094L10.083.227c.091-.091.182-.091.274 0l1.593 1.594c.091.09.091.182 0 .273L6.365 7.705c-.182.183-.547.183-.73 0L.07 2.118c-.093-.09-.093-.182 0-.273z"/></symbol><symbol viewBox="0 0 20 16" id="slider-arrow" xmlns="http://www.w3.org/2000/svg"><path d="M19.707 8.707a1 1 0 0 0 0-1.414L13.343.929a1 1 0 1 0-1.414 1.414L17.586 8l-5.657 5.657a1 1 0 0 0 1.414 1.414l6.364-6.364zM0 9h19V7H0v2z"/></symbol><symbol viewBox="0 0 0 0" id="sprite" xmlns="http://www.w3.org/2000/svg"/><symbol viewBox="0 0 13 13" id="star" xmlns="http://www.w3.org/2000/svg"><path d="M9.731 7.43l2.604-2.249c.368-.32.178-.945-.305-.972l-3.353-.213a.529.529 0 0 1-.457-.346L6.988.35a.517.517 0 0 0-.978 0L4.78 3.636a.529.529 0 0 1-.458.346l-3.365.213c-.483.027-.673.652-.305.972l2.604 2.236c.152.133.228.36.177.559l-.85 3.42c-.115.48.38.866.787.6l2.83-1.904a.48.48 0 0 1 .559 0l2.844 1.903c.407.267.902-.12.788-.598L9.54 7.976a.561.561 0 0 1 .19-.546z"/></symbol></svg>