<svg width="13" height="13" viewBox="0 0 13 13" fill="none" xmlns="http://www.w3.org/2000/svg">
<path d="M9.73142 7.43038L12.3348 5.18097C12.7031 4.86152 12.5126 4.23595 12.03 4.20933L8.67735 3.99636C8.47416 3.98305 8.29637 3.84995 8.22017 3.6503L6.98832 0.349391C6.81052 -0.116464 6.18825 -0.116464 6.01045 0.349391L4.7786 3.63699C4.7024 3.83664 4.52461 3.96974 4.32142 3.98305L0.956041 4.19602C0.473459 4.22264 0.282966 4.84821 0.651252 5.16766L3.25466 7.40376C3.40705 7.53686 3.48325 7.76313 3.43245 7.96278L2.58158 11.3835C2.46728 11.8626 2.96257 12.2486 3.36895 11.9824L6.20095 10.0791C6.37874 9.9593 6.59463 9.9593 6.75973 10.0791L9.60442 11.9824C10.0108 12.2486 10.5061 11.8626 10.3918 11.3835L9.54092 7.97609C9.50282 7.77644 9.56632 7.56348 9.73142 7.43038Z" fill="white"/>
</svg>
