<svg width="8" height="13" viewBox="0 0 8 13" fill="none" xmlns="http://www.w3.org/2000/svg">
<path d="M1.68912 11.9477L1.68909 11.9476L0.069107 10.3852C0.0691053 10.3852 0.0691036 10.3852 0.0691019 10.3852C0.0236143 10.3398 0.000999923 10.2944 0.000999921 10.2492C0.000999919 10.2039 0.023616 10.1586 0.069107 10.1131L4.16351 6.01866L4.1628 6.01795L4.16209 6.01725L3.56051 5.41567L0.071506 1.93484C0.0260158 1.88935 0.0033997 1.84399 0.0033997 1.79875C0.0033997 1.75351 0.0260158 1.70815 0.0715068 1.66266L1.66511 0.0690583C1.7106 0.0235681 1.75596 0.00095169 1.8012 0.000951688C1.84644 0.000951686 1.8918 0.0235681 1.93729 0.0690583L7.54849 5.65386C7.63946 5.74483 7.685 5.88135 7.685 6.01795C7.685 6.15455 7.63946 6.29108 7.54849 6.38205L1.96129 11.9476L1.96128 11.9477C1.91579 11.9943 1.87043 12.0176 1.8252 12.0176C1.77997 12.0176 1.73461 11.9943 1.68912 11.9477Z" fill="white" stroke="black" stroke-width="0.002"/>
</svg>
